<mxfile host="app.diagrams.net" modified="2021-06-01T12:20:46.310Z" agent="5.0 (Windows NT 10.0; Win64; x64) AppleWebKit/537.36 (KHTML, like Gecko) Chrome/91.0.4472.77 Safari/537.36" etag="AyqeaMiEOI4d9BO5UWt3" version="14.7.3" type="github">
  <diagram id="C5RBs43oDa-KdzZeNtuy" name="Page-1">
    <mxGraphModel dx="3993" dy="2455" grid="1" gridSize="10" guides="1" tooltips="1" connect="1" arrows="1" fold="1" page="1" pageScale="1" pageWidth="827" pageHeight="1169" math="0" shadow="0">
      <root>
        <mxCell id="WIyWlLk6GJQsqaUBKTNV-0" />
        <mxCell id="WIyWlLk6GJQsqaUBKTNV-1" parent="WIyWlLk6GJQsqaUBKTNV-0" />
        <mxCell id="YWwmz5HcYFX-tSxnKrV8-163" value="" style="rounded=1;whiteSpace=wrap;html=1;shadow=0;fillColor=#FFFFFF;" vertex="1" parent="WIyWlLk6GJQsqaUBKTNV-1">
          <mxGeometry x="-20" y="-140" width="1240" height="870" as="geometry" />
        </mxCell>
        <mxCell id="YWwmz5HcYFX-tSxnKrV8-162" value="" style="rounded=1;whiteSpace=wrap;html=1;shadow=0;fillColor=#FFFFFF;" vertex="1" parent="WIyWlLk6GJQsqaUBKTNV-1">
          <mxGeometry x="510" y="315" width="160" height="95" as="geometry" />
        </mxCell>
        <mxCell id="YWwmz5HcYFX-tSxnKrV8-144" value="" style="rounded=1;whiteSpace=wrap;html=1;shadow=0;fillColor=#FFFFFF;" vertex="1" parent="WIyWlLk6GJQsqaUBKTNV-1">
          <mxGeometry x="50" y="70" width="1080" height="210" as="geometry" />
        </mxCell>
        <mxCell id="YWwmz5HcYFX-tSxnKrV8-47" value="" style="rounded=0;whiteSpace=wrap;html=1;shadow=0;fillColor=#FFFFFF;" vertex="1" parent="WIyWlLk6GJQsqaUBKTNV-1">
          <mxGeometry x="359" y="90" width="140" height="160" as="geometry" />
        </mxCell>
        <mxCell id="YWwmz5HcYFX-tSxnKrV8-1" value="&lt;b&gt;&lt;font style=&quot;font-size: 24px&quot;&gt;Model/schema&lt;/font&gt;&lt;/b&gt;" style="text;html=1;align=center;verticalAlign=middle;resizable=0;points=[];autosize=1;strokeColor=none;" vertex="1" parent="WIyWlLk6GJQsqaUBKTNV-1">
          <mxGeometry x="500" y="-70" width="180" height="20" as="geometry" />
        </mxCell>
        <mxCell id="YWwmz5HcYFX-tSxnKrV8-19" value="services" style="text;html=1;strokeColor=none;fillColor=none;align=left;verticalAlign=middle;whiteSpace=wrap;rounded=0;" vertex="1" parent="WIyWlLk6GJQsqaUBKTNV-1">
          <mxGeometry x="359" y="110" width="140" height="20" as="geometry" />
        </mxCell>
        <mxCell id="YWwmz5HcYFX-tSxnKrV8-20" value="source" style="text;html=1;strokeColor=none;fillColor=none;align=left;verticalAlign=middle;whiteSpace=wrap;rounded=0;" vertex="1" parent="WIyWlLk6GJQsqaUBKTNV-1">
          <mxGeometry x="359" y="130" width="140" height="20" as="geometry" />
        </mxCell>
        <mxCell id="YWwmz5HcYFX-tSxnKrV8-21" value="idViber" style="text;html=1;strokeColor=none;fillColor=none;align=left;verticalAlign=middle;whiteSpace=wrap;rounded=0;" vertex="1" parent="WIyWlLk6GJQsqaUBKTNV-1">
          <mxGeometry x="359" y="150" width="140" height="20" as="geometry" />
        </mxCell>
        <mxCell id="YWwmz5HcYFX-tSxnKrV8-22" value="&lt;i&gt;profile&lt;/i&gt;" style="text;html=1;strokeColor=none;fillColor=#CCE5FF;align=left;verticalAlign=middle;whiteSpace=wrap;rounded=0;shadow=0;" vertex="1" parent="WIyWlLk6GJQsqaUBKTNV-1">
          <mxGeometry x="359" y="170" width="140" height="20" as="geometry" />
        </mxCell>
        <mxCell id="YWwmz5HcYFX-tSxnKrV8-23" value="state" style="text;html=1;strokeColor=none;fillColor=none;align=left;verticalAlign=middle;whiteSpace=wrap;rounded=0;" vertex="1" parent="WIyWlLk6GJQsqaUBKTNV-1">
          <mxGeometry x="359" y="190" width="140" height="20" as="geometry" />
        </mxCell>
        <mxCell id="YWwmz5HcYFX-tSxnKrV8-24" value="date" style="text;html=1;strokeColor=none;fillColor=none;align=left;verticalAlign=middle;whiteSpace=wrap;rounded=0;" vertex="1" parent="WIyWlLk6GJQsqaUBKTNV-1">
          <mxGeometry x="359" y="210" width="140" height="20" as="geometry" />
        </mxCell>
        <mxCell id="YWwmz5HcYFX-tSxnKrV8-25" value="&lt;b&gt;clientViber&lt;/b&gt;" style="text;html=1;strokeColor=none;fillColor=#66FF66;align=center;verticalAlign=middle;whiteSpace=wrap;rounded=0;" vertex="1" parent="WIyWlLk6GJQsqaUBKTNV-1">
          <mxGeometry x="359" y="90" width="140" height="20" as="geometry" />
        </mxCell>
        <mxCell id="YWwmz5HcYFX-tSxnKrV8-26" value="&lt;b&gt;modelRoleClientViber&lt;/b&gt;" style="text;html=1;strokeColor=none;fillColor=#B3B3B3;align=center;verticalAlign=middle;whiteSpace=wrap;rounded=0;" vertex="1" parent="WIyWlLk6GJQsqaUBKTNV-1">
          <mxGeometry x="359" y="230" width="140" height="20" as="geometry" />
        </mxCell>
        <mxCell id="YWwmz5HcYFX-tSxnKrV8-32" value="&lt;b&gt;Array&lt;/b&gt;" style="rounded=0;whiteSpace=wrap;html=1;fillColor=#CCE5FF;" vertex="1" parent="WIyWlLk6GJQsqaUBKTNV-1">
          <mxGeometry x="449" y="170.5" width="50" height="19" as="geometry" />
        </mxCell>
        <mxCell id="YWwmz5HcYFX-tSxnKrV8-43" value="" style="edgeStyle=orthogonalEdgeStyle;rounded=0;orthogonalLoop=1;jettySize=auto;html=1;entryX=0;entryY=0.5;entryDx=0;entryDy=0;fillColor=#CCE5FF;" edge="1" parent="WIyWlLk6GJQsqaUBKTNV-1" target="YWwmz5HcYFX-tSxnKrV8-44">
          <mxGeometry relative="1" as="geometry">
            <mxPoint x="499" y="181" as="sourcePoint" />
            <mxPoint x="569" y="140" as="targetPoint" />
          </mxGeometry>
        </mxCell>
        <mxCell id="YWwmz5HcYFX-tSxnKrV8-34" value="" style="rounded=0;whiteSpace=wrap;html=1;shadow=0;fillColor=#CCE5FF;" vertex="1" parent="WIyWlLk6GJQsqaUBKTNV-1">
          <mxGeometry x="583" y="100" width="120" height="140" as="geometry" />
        </mxCell>
        <mxCell id="YWwmz5HcYFX-tSxnKrV8-35" value="id" style="text;html=1;strokeColor=none;fillColor=#CCE5FF;align=left;verticalAlign=middle;whiteSpace=wrap;rounded=0;shadow=0;" vertex="1" parent="WIyWlLk6GJQsqaUBKTNV-1">
          <mxGeometry x="583" y="120" width="106" height="20" as="geometry" />
        </mxCell>
        <mxCell id="YWwmz5HcYFX-tSxnKrV8-37" value="name" style="text;html=1;strokeColor=none;fillColor=#CCE5FF;align=left;verticalAlign=middle;whiteSpace=wrap;rounded=0;shadow=0;" vertex="1" parent="WIyWlLk6GJQsqaUBKTNV-1">
          <mxGeometry x="583" y="140" width="120" height="20" as="geometry" />
        </mxCell>
        <mxCell id="YWwmz5HcYFX-tSxnKrV8-38" value="avatar" style="text;html=1;strokeColor=none;fillColor=#CCE5FF;align=left;verticalAlign=middle;whiteSpace=wrap;rounded=0;shadow=0;" vertex="1" parent="WIyWlLk6GJQsqaUBKTNV-1">
          <mxGeometry x="583" y="160" width="120" height="20" as="geometry" />
        </mxCell>
        <mxCell id="YWwmz5HcYFX-tSxnKrV8-39" value="country" style="text;html=1;strokeColor=none;fillColor=#CCE5FF;align=left;verticalAlign=middle;whiteSpace=wrap;rounded=0;shadow=0;" vertex="1" parent="WIyWlLk6GJQsqaUBKTNV-1">
          <mxGeometry x="583" y="180" width="120" height="20" as="geometry" />
        </mxCell>
        <mxCell id="YWwmz5HcYFX-tSxnKrV8-40" value="language" style="text;html=1;strokeColor=none;fillColor=#CCE5FF;align=left;verticalAlign=middle;whiteSpace=wrap;rounded=0;shadow=0;" vertex="1" parent="WIyWlLk6GJQsqaUBKTNV-1">
          <mxGeometry x="583" y="200" width="120" height="20" as="geometry" />
        </mxCell>
        <mxCell id="YWwmz5HcYFX-tSxnKrV8-41" value="apiVersion" style="text;html=1;strokeColor=none;fillColor=#CCE5FF;align=left;verticalAlign=middle;whiteSpace=wrap;rounded=0;shadow=0;" vertex="1" parent="WIyWlLk6GJQsqaUBKTNV-1">
          <mxGeometry x="583" y="220" width="120" height="20" as="geometry" />
        </mxCell>
        <mxCell id="YWwmz5HcYFX-tSxnKrV8-44" value="&lt;i&gt;profile&lt;/i&gt;" style="text;html=1;strokeColor=none;fillColor=#CCE5FF;align=left;verticalAlign=middle;whiteSpace=wrap;rounded=0;shadow=0;" vertex="1" parent="WIyWlLk6GJQsqaUBKTNV-1">
          <mxGeometry x="583" y="100" width="106" height="20" as="geometry" />
        </mxCell>
        <mxCell id="YWwmz5HcYFX-tSxnKrV8-45" value="" style="endArrow=none;html=1;entryX=1;entryY=0.143;entryDx=0;entryDy=0;entryPerimeter=0;fillColor=#CCE5FF;" edge="1" parent="WIyWlLk6GJQsqaUBKTNV-1" target="YWwmz5HcYFX-tSxnKrV8-34">
          <mxGeometry width="50" height="50" relative="1" as="geometry">
            <mxPoint x="583" y="120" as="sourcePoint" />
            <mxPoint x="689" y="120" as="targetPoint" />
          </mxGeometry>
        </mxCell>
        <mxCell id="YWwmz5HcYFX-tSxnKrV8-48" value="" style="rounded=0;whiteSpace=wrap;html=1;shadow=0;fillColor=#FFFFFF;" vertex="1" parent="WIyWlLk6GJQsqaUBKTNV-1">
          <mxGeometry x="739" y="90" width="150" height="160" as="geometry" />
        </mxCell>
        <mxCell id="YWwmz5HcYFX-tSxnKrV8-49" value="services" style="text;html=1;strokeColor=none;fillColor=none;align=left;verticalAlign=middle;whiteSpace=wrap;rounded=0;" vertex="1" parent="WIyWlLk6GJQsqaUBKTNV-1">
          <mxGeometry x="739" y="110" width="150" height="20" as="geometry" />
        </mxCell>
        <mxCell id="YWwmz5HcYFX-tSxnKrV8-50" value="source" style="text;html=1;strokeColor=none;fillColor=none;align=left;verticalAlign=middle;whiteSpace=wrap;rounded=0;" vertex="1" parent="WIyWlLk6GJQsqaUBKTNV-1">
          <mxGeometry x="739" y="130" width="150" height="20" as="geometry" />
        </mxCell>
        <mxCell id="YWwmz5HcYFX-tSxnKrV8-51" value="idTelegram" style="text;html=1;strokeColor=none;fillColor=none;align=left;verticalAlign=middle;whiteSpace=wrap;rounded=0;" vertex="1" parent="WIyWlLk6GJQsqaUBKTNV-1">
          <mxGeometry x="739" y="150" width="150" height="20" as="geometry" />
        </mxCell>
        <mxCell id="YWwmz5HcYFX-tSxnKrV8-52" value="&lt;i&gt;profile&lt;/i&gt;" style="text;html=1;strokeColor=none;fillColor=#CCE5FF;align=left;verticalAlign=middle;whiteSpace=wrap;rounded=0;shadow=0;" vertex="1" parent="WIyWlLk6GJQsqaUBKTNV-1">
          <mxGeometry x="739" y="170" width="150" height="20" as="geometry" />
        </mxCell>
        <mxCell id="YWwmz5HcYFX-tSxnKrV8-53" value="state" style="text;html=1;strokeColor=none;fillColor=none;align=left;verticalAlign=middle;whiteSpace=wrap;rounded=0;" vertex="1" parent="WIyWlLk6GJQsqaUBKTNV-1">
          <mxGeometry x="739" y="190" width="150" height="20" as="geometry" />
        </mxCell>
        <mxCell id="YWwmz5HcYFX-tSxnKrV8-54" value="date" style="text;html=1;strokeColor=none;fillColor=none;align=left;verticalAlign=middle;whiteSpace=wrap;rounded=0;" vertex="1" parent="WIyWlLk6GJQsqaUBKTNV-1">
          <mxGeometry x="739" y="210" width="150" height="20" as="geometry" />
        </mxCell>
        <mxCell id="YWwmz5HcYFX-tSxnKrV8-55" value="&lt;b&gt;clientTelegram&lt;/b&gt;" style="text;html=1;strokeColor=none;fillColor=#66FF66;align=center;verticalAlign=middle;whiteSpace=wrap;rounded=0;" vertex="1" parent="WIyWlLk6GJQsqaUBKTNV-1">
          <mxGeometry x="739" y="90" width="150" height="20" as="geometry" />
        </mxCell>
        <mxCell id="YWwmz5HcYFX-tSxnKrV8-56" value="&lt;b&gt;modelRoleClientTelegram&lt;/b&gt;" style="text;html=1;strokeColor=none;fillColor=#B3B3B3;align=center;verticalAlign=middle;whiteSpace=wrap;rounded=0;" vertex="1" parent="WIyWlLk6GJQsqaUBKTNV-1">
          <mxGeometry x="739" y="230" width="150" height="20" as="geometry" />
        </mxCell>
        <mxCell id="YWwmz5HcYFX-tSxnKrV8-59" value="&lt;b&gt;Array&lt;/b&gt;" style="rounded=0;whiteSpace=wrap;html=1;fillColor=#CCE5FF;" vertex="1" parent="WIyWlLk6GJQsqaUBKTNV-1">
          <mxGeometry x="839" y="170.5" width="50" height="19" as="geometry" />
        </mxCell>
        <mxCell id="YWwmz5HcYFX-tSxnKrV8-60" value="" style="edgeStyle=orthogonalEdgeStyle;rounded=0;orthogonalLoop=1;jettySize=auto;html=1;entryX=0;entryY=0.5;entryDx=0;entryDy=0;" edge="1" parent="WIyWlLk6GJQsqaUBKTNV-1" target="YWwmz5HcYFX-tSxnKrV8-69">
          <mxGeometry relative="1" as="geometry">
            <mxPoint x="959" y="140" as="targetPoint" />
            <mxPoint x="889" y="180" as="sourcePoint" />
          </mxGeometry>
        </mxCell>
        <mxCell id="YWwmz5HcYFX-tSxnKrV8-62" value="" style="rounded=0;whiteSpace=wrap;html=1;shadow=0;fillColor=#CCE5FF;" vertex="1" parent="WIyWlLk6GJQsqaUBKTNV-1">
          <mxGeometry x="973" y="100" width="120" height="120" as="geometry" />
        </mxCell>
        <mxCell id="YWwmz5HcYFX-tSxnKrV8-63" value="id" style="text;html=1;strokeColor=none;fillColor=#CCE5FF;align=left;verticalAlign=middle;whiteSpace=wrap;rounded=0;shadow=0;" vertex="1" parent="WIyWlLk6GJQsqaUBKTNV-1">
          <mxGeometry x="973" y="120" width="116" height="20" as="geometry" />
        </mxCell>
        <mxCell id="YWwmz5HcYFX-tSxnKrV8-64" value="name" style="text;html=1;strokeColor=none;fillColor=#CCE5FF;align=left;verticalAlign=middle;whiteSpace=wrap;rounded=0;shadow=0;" vertex="1" parent="WIyWlLk6GJQsqaUBKTNV-1">
          <mxGeometry x="973" y="140" width="120" height="20" as="geometry" />
        </mxCell>
        <mxCell id="YWwmz5HcYFX-tSxnKrV8-65" value="username" style="text;html=1;strokeColor=none;fillColor=#CCE5FF;align=left;verticalAlign=middle;whiteSpace=wrap;rounded=0;shadow=0;" vertex="1" parent="WIyWlLk6GJQsqaUBKTNV-1">
          <mxGeometry x="973" y="160" width="120" height="20" as="geometry" />
        </mxCell>
        <mxCell id="YWwmz5HcYFX-tSxnKrV8-66" value="language" style="text;html=1;strokeColor=none;fillColor=#CCE5FF;align=left;verticalAlign=middle;whiteSpace=wrap;rounded=0;shadow=0;" vertex="1" parent="WIyWlLk6GJQsqaUBKTNV-1">
          <mxGeometry x="973" y="180" width="120" height="20" as="geometry" />
        </mxCell>
        <mxCell id="YWwmz5HcYFX-tSxnKrV8-67" value="is_bot" style="text;html=1;strokeColor=none;fillColor=#CCE5FF;align=left;verticalAlign=middle;whiteSpace=wrap;rounded=0;shadow=0;" vertex="1" parent="WIyWlLk6GJQsqaUBKTNV-1">
          <mxGeometry x="973" y="200" width="120" height="20" as="geometry" />
        </mxCell>
        <mxCell id="YWwmz5HcYFX-tSxnKrV8-69" value="&lt;i&gt;profile&lt;/i&gt;" style="text;html=1;strokeColor=none;fillColor=#CCE5FF;align=left;verticalAlign=middle;whiteSpace=wrap;rounded=0;shadow=0;" vertex="1" parent="WIyWlLk6GJQsqaUBKTNV-1">
          <mxGeometry x="973" y="100" width="106" height="20" as="geometry" />
        </mxCell>
        <mxCell id="YWwmz5HcYFX-tSxnKrV8-70" value="" style="endArrow=none;html=1;fillColor=#CCE5FF;entryX=1.006;entryY=0.172;entryDx=0;entryDy=0;entryPerimeter=0;" edge="1" parent="WIyWlLk6GJQsqaUBKTNV-1" target="YWwmz5HcYFX-tSxnKrV8-62">
          <mxGeometry width="50" height="50" relative="1" as="geometry">
            <mxPoint x="973" y="120" as="sourcePoint" />
            <mxPoint x="940" y="120" as="targetPoint" />
          </mxGeometry>
        </mxCell>
        <mxCell id="YWwmz5HcYFX-tSxnKrV8-137" value="&lt;i&gt;ObjectId&lt;/i&gt;" style="rounded=0;whiteSpace=wrap;html=1;shadow=0;fillColor=#FFFFFF;" vertex="1" parent="WIyWlLk6GJQsqaUBKTNV-1">
          <mxGeometry x="449" y="110" width="50" height="20" as="geometry" />
        </mxCell>
        <mxCell id="YWwmz5HcYFX-tSxnKrV8-138" value="&lt;i&gt;ObjectId&lt;/i&gt;" style="rounded=0;whiteSpace=wrap;html=1;shadow=0;fillColor=#FFFFFF;" vertex="1" parent="WIyWlLk6GJQsqaUBKTNV-1">
          <mxGeometry x="839" y="110" width="50" height="20" as="geometry" />
        </mxCell>
        <mxCell id="YWwmz5HcYFX-tSxnKrV8-146" value="" style="edgeStyle=orthogonalEdgeStyle;rounded=0;orthogonalLoop=1;jettySize=auto;html=1;fillColor=#CCE5FF;entryX=0.5;entryY=1;entryDx=0;entryDy=0;" edge="1" parent="WIyWlLk6GJQsqaUBKTNV-1" source="YWwmz5HcYFX-tSxnKrV8-140" target="YWwmz5HcYFX-tSxnKrV8-144">
          <mxGeometry relative="1" as="geometry">
            <mxPoint x="200" y="325" as="targetPoint" />
            <Array as="points">
              <mxPoint x="590" y="325" />
            </Array>
          </mxGeometry>
        </mxCell>
        <mxCell id="YWwmz5HcYFX-tSxnKrV8-140" value="&lt;b&gt;&lt;font style=&quot;font-size: 18px&quot;&gt;role&lt;/font&gt;&lt;/b&gt;" style="rounded=0;whiteSpace=wrap;html=1;shadow=0;fillColor=#FFFFFF;" vertex="1" parent="WIyWlLk6GJQsqaUBKTNV-1">
          <mxGeometry x="550" y="330" width="80" height="30" as="geometry" />
        </mxCell>
        <mxCell id="YWwmz5HcYFX-tSxnKrV8-148" value="" style="edgeStyle=orthogonalEdgeStyle;rounded=0;orthogonalLoop=1;jettySize=auto;html=1;fillColor=#CCE5FF;" edge="1" parent="WIyWlLk6GJQsqaUBKTNV-1" source="YWwmz5HcYFX-tSxnKrV8-141" target="YWwmz5HcYFX-tSxnKrV8-149">
          <mxGeometry relative="1" as="geometry">
            <mxPoint x="200" y="360" as="targetPoint" />
            <Array as="points">
              <mxPoint x="590" y="430" />
              <mxPoint x="590" y="430" />
            </Array>
          </mxGeometry>
        </mxCell>
        <mxCell id="YWwmz5HcYFX-tSxnKrV8-141" value="&lt;b&gt;&lt;font style=&quot;font-size: 18px&quot;&gt;structure&lt;/font&gt;&lt;/b&gt;" style="rounded=0;whiteSpace=wrap;html=1;shadow=0;fillColor=#FFFFFF;" vertex="1" parent="WIyWlLk6GJQsqaUBKTNV-1">
          <mxGeometry x="550" y="365" width="80" height="30" as="geometry" />
        </mxCell>
        <mxCell id="YWwmz5HcYFX-tSxnKrV8-151" value="" style="group" vertex="1" connectable="0" parent="WIyWlLk6GJQsqaUBKTNV-1">
          <mxGeometry x="130" y="90" width="140" height="120" as="geometry" />
        </mxCell>
        <mxCell id="YWwmz5HcYFX-tSxnKrV8-71" value="" style="rounded=0;whiteSpace=wrap;html=1;shadow=0;fillColor=#FFFFFF;" vertex="1" parent="YWwmz5HcYFX-tSxnKrV8-151">
          <mxGeometry width="140" height="120" as="geometry" />
        </mxCell>
        <mxCell id="YWwmz5HcYFX-tSxnKrV8-72" value="date" style="text;html=1;strokeColor=none;fillColor=none;align=left;verticalAlign=middle;whiteSpace=wrap;rounded=0;" vertex="1" parent="YWwmz5HcYFX-tSxnKrV8-151">
          <mxGeometry y="20" width="140" height="20" as="geometry" />
        </mxCell>
        <mxCell id="YWwmz5HcYFX-tSxnKrV8-73" value="authorization" style="text;html=1;strokeColor=none;fillColor=none;align=left;verticalAlign=middle;whiteSpace=wrap;rounded=0;" vertex="1" parent="YWwmz5HcYFX-tSxnKrV8-151">
          <mxGeometry y="40" width="140" height="20" as="geometry" />
        </mxCell>
        <mxCell id="YWwmz5HcYFX-tSxnKrV8-74" value="services" style="text;html=1;strokeColor=none;fillColor=none;align=left;verticalAlign=middle;whiteSpace=wrap;rounded=0;" vertex="1" parent="YWwmz5HcYFX-tSxnKrV8-151">
          <mxGeometry y="60" width="140" height="20" as="geometry" />
        </mxCell>
        <mxCell id="YWwmz5HcYFX-tSxnKrV8-76" value="image" style="text;html=1;strokeColor=none;fillColor=none;align=left;verticalAlign=middle;whiteSpace=wrap;rounded=0;" vertex="1" parent="YWwmz5HcYFX-tSxnKrV8-151">
          <mxGeometry y="80" width="140" height="20" as="geometry" />
        </mxCell>
        <mxCell id="YWwmz5HcYFX-tSxnKrV8-78" value="&lt;b&gt;client&lt;/b&gt;" style="text;html=1;strokeColor=none;fillColor=#66FF66;align=center;verticalAlign=middle;whiteSpace=wrap;rounded=0;" vertex="1" parent="YWwmz5HcYFX-tSxnKrV8-151">
          <mxGeometry width="140" height="20" as="geometry" />
        </mxCell>
        <mxCell id="YWwmz5HcYFX-tSxnKrV8-79" value="&lt;b&gt;modelRoleClient&lt;/b&gt;" style="text;html=1;strokeColor=none;fillColor=#B3B3B3;align=center;verticalAlign=middle;whiteSpace=wrap;rounded=0;" vertex="1" parent="YWwmz5HcYFX-tSxnKrV8-151">
          <mxGeometry y="100" width="140" height="20" as="geometry" />
        </mxCell>
        <mxCell id="YWwmz5HcYFX-tSxnKrV8-94" value="&lt;i&gt;ObjectId&lt;/i&gt;" style="rounded=0;whiteSpace=wrap;html=1;shadow=0;fillColor=#FFFFFF;" vertex="1" parent="YWwmz5HcYFX-tSxnKrV8-151">
          <mxGeometry x="90" y="40" width="50" height="20" as="geometry" />
        </mxCell>
        <mxCell id="YWwmz5HcYFX-tSxnKrV8-95" value="&lt;i&gt;ObjectId&lt;/i&gt;" style="rounded=0;whiteSpace=wrap;html=1;shadow=0;fillColor=#FFFFFF;" vertex="1" parent="YWwmz5HcYFX-tSxnKrV8-151">
          <mxGeometry x="90" y="60" width="50" height="20" as="geometry" />
        </mxCell>
        <mxCell id="YWwmz5HcYFX-tSxnKrV8-96" value="&lt;i&gt;ObjectId&lt;/i&gt;" style="rounded=0;whiteSpace=wrap;html=1;shadow=0;fillColor=#FFFFFF;" vertex="1" parent="YWwmz5HcYFX-tSxnKrV8-151">
          <mxGeometry x="90" y="80" width="50" height="20" as="geometry" />
        </mxCell>
        <mxCell id="YWwmz5HcYFX-tSxnKrV8-149" value="" style="rounded=1;whiteSpace=wrap;html=1;shadow=0;fillColor=#FFFFFF;" vertex="1" parent="WIyWlLk6GJQsqaUBKTNV-1">
          <mxGeometry x="265" y="455.5" width="650" height="170" as="geometry" />
        </mxCell>
        <mxCell id="YWwmz5HcYFX-tSxnKrV8-153" value="" style="group" vertex="1" connectable="0" parent="WIyWlLk6GJQsqaUBKTNV-1">
          <mxGeometry x="505" y="490" width="145" height="120" as="geometry" />
        </mxCell>
        <mxCell id="YWwmz5HcYFX-tSxnKrV8-110" value="" style="rounded=0;whiteSpace=wrap;html=1;shadow=0;fillColor=#FFFFFF;" vertex="1" parent="YWwmz5HcYFX-tSxnKrV8-153">
          <mxGeometry width="145" height="120" as="geometry" />
        </mxCell>
        <mxCell id="YWwmz5HcYFX-tSxnKrV8-111" value="clientId" style="text;html=1;strokeColor=none;fillColor=none;align=left;verticalAlign=middle;whiteSpace=wrap;rounded=0;" vertex="1" parent="YWwmz5HcYFX-tSxnKrV8-153">
          <mxGeometry y="20" width="140" height="20" as="geometry" />
        </mxCell>
        <mxCell id="YWwmz5HcYFX-tSxnKrV8-112" value="fileName" style="text;html=1;strokeColor=none;fillColor=none;align=left;verticalAlign=middle;whiteSpace=wrap;rounded=0;" vertex="1" parent="YWwmz5HcYFX-tSxnKrV8-153">
          <mxGeometry y="40" width="140" height="20" as="geometry" />
        </mxCell>
        <mxCell id="YWwmz5HcYFX-tSxnKrV8-113" value="comment" style="text;html=1;strokeColor=none;fillColor=none;align=left;verticalAlign=middle;whiteSpace=wrap;rounded=0;" vertex="1" parent="YWwmz5HcYFX-tSxnKrV8-153">
          <mxGeometry y="60" width="140" height="20" as="geometry" />
        </mxCell>
        <mxCell id="YWwmz5HcYFX-tSxnKrV8-114" value="date" style="text;html=1;strokeColor=none;fillColor=none;align=left;verticalAlign=middle;whiteSpace=wrap;rounded=0;" vertex="1" parent="YWwmz5HcYFX-tSxnKrV8-153">
          <mxGeometry y="80" width="140" height="20" as="geometry" />
        </mxCell>
        <mxCell id="YWwmz5HcYFX-tSxnKrV8-115" value="&lt;b&gt;image&lt;/b&gt;" style="text;html=1;strokeColor=none;fillColor=#66FF66;align=center;verticalAlign=middle;whiteSpace=wrap;rounded=0;" vertex="1" parent="YWwmz5HcYFX-tSxnKrV8-153">
          <mxGeometry width="145" height="20" as="geometry" />
        </mxCell>
        <mxCell id="YWwmz5HcYFX-tSxnKrV8-116" value="&lt;b&gt;model&lt;/b&gt;&lt;b&gt;Structure&lt;/b&gt;&lt;b&gt;Image&lt;/b&gt;" style="text;html=1;strokeColor=none;fillColor=#B3B3B3;align=center;verticalAlign=middle;whiteSpace=wrap;rounded=0;" vertex="1" parent="YWwmz5HcYFX-tSxnKrV8-153">
          <mxGeometry y="100" width="145" height="20" as="geometry" />
        </mxCell>
        <mxCell id="YWwmz5HcYFX-tSxnKrV8-119" value="&lt;i&gt;ObjectId&lt;/i&gt;" style="rounded=0;whiteSpace=wrap;html=1;shadow=0;fillColor=#FFFFFF;" vertex="1" parent="YWwmz5HcYFX-tSxnKrV8-153">
          <mxGeometry x="95" y="20" width="50" height="20" as="geometry" />
        </mxCell>
        <mxCell id="YWwmz5HcYFX-tSxnKrV8-154" value="" style="group" vertex="1" connectable="0" parent="WIyWlLk6GJQsqaUBKTNV-1">
          <mxGeometry x="689" y="490" width="180" height="100" as="geometry" />
        </mxCell>
        <mxCell id="YWwmz5HcYFX-tSxnKrV8-122" value="" style="rounded=0;whiteSpace=wrap;html=1;shadow=0;fillColor=#FFFFFF;" vertex="1" parent="YWwmz5HcYFX-tSxnKrV8-154">
          <mxGeometry width="180" height="100" as="geometry" />
        </mxCell>
        <mxCell id="YWwmz5HcYFX-tSxnKrV8-123" value="clientId" style="text;html=1;strokeColor=none;fillColor=none;align=left;verticalAlign=middle;whiteSpace=wrap;rounded=0;" vertex="1" parent="YWwmz5HcYFX-tSxnKrV8-154">
          <mxGeometry y="20" width="140" height="20" as="geometry" />
        </mxCell>
        <mxCell id="YWwmz5HcYFX-tSxnKrV8-124" value="telegram" style="text;html=1;strokeColor=none;fillColor=none;align=left;verticalAlign=middle;whiteSpace=wrap;rounded=0;" vertex="1" parent="YWwmz5HcYFX-tSxnKrV8-154">
          <mxGeometry y="40" width="140" height="20" as="geometry" />
        </mxCell>
        <mxCell id="YWwmz5HcYFX-tSxnKrV8-125" value="viber" style="text;html=1;strokeColor=none;fillColor=none;align=left;verticalAlign=middle;whiteSpace=wrap;rounded=0;" vertex="1" parent="YWwmz5HcYFX-tSxnKrV8-154">
          <mxGeometry y="60" width="140" height="20" as="geometry" />
        </mxCell>
        <mxCell id="YWwmz5HcYFX-tSxnKrV8-127" value="&lt;b&gt;services&lt;/b&gt;" style="text;html=1;strokeColor=none;fillColor=#66FF66;align=center;verticalAlign=middle;whiteSpace=wrap;rounded=0;" vertex="1" parent="YWwmz5HcYFX-tSxnKrV8-154">
          <mxGeometry width="180" height="20" as="geometry" />
        </mxCell>
        <mxCell id="YWwmz5HcYFX-tSxnKrV8-128" value="&lt;b&gt;model&lt;/b&gt;&lt;b&gt;Structure&lt;/b&gt;&lt;b&gt;Services&lt;/b&gt;" style="text;html=1;strokeColor=none;fillColor=#B3B3B3;align=center;verticalAlign=middle;whiteSpace=wrap;rounded=0;" vertex="1" parent="YWwmz5HcYFX-tSxnKrV8-154">
          <mxGeometry y="80" width="180" height="20" as="geometry" />
        </mxCell>
        <mxCell id="YWwmz5HcYFX-tSxnKrV8-131" value="&lt;i&gt;ObjectId&lt;/i&gt;" style="rounded=0;whiteSpace=wrap;html=1;shadow=0;fillColor=#FFFFFF;" vertex="1" parent="YWwmz5HcYFX-tSxnKrV8-154">
          <mxGeometry x="90" y="20" width="90" height="20" as="geometry" />
        </mxCell>
        <mxCell id="YWwmz5HcYFX-tSxnKrV8-134" value="&lt;b&gt;Array/ObjectId&lt;/b&gt;" style="rounded=0;whiteSpace=wrap;html=1;fillColor=#CCE5FF;" vertex="1" parent="YWwmz5HcYFX-tSxnKrV8-154">
          <mxGeometry x="90" y="41" width="90" height="19" as="geometry" />
        </mxCell>
        <mxCell id="YWwmz5HcYFX-tSxnKrV8-139" value="&lt;b&gt;Array/ObjectId&lt;/b&gt;" style="rounded=0;whiteSpace=wrap;html=1;fillColor=#CCE5FF;" vertex="1" parent="YWwmz5HcYFX-tSxnKrV8-154">
          <mxGeometry x="90" y="61" width="90" height="19" as="geometry" />
        </mxCell>
        <mxCell id="YWwmz5HcYFX-tSxnKrV8-158" value="" style="group" vertex="1" connectable="0" parent="WIyWlLk6GJQsqaUBKTNV-1">
          <mxGeometry x="300" y="490" width="170" height="100" as="geometry" />
        </mxCell>
        <mxCell id="YWwmz5HcYFX-tSxnKrV8-97" value="" style="rounded=0;whiteSpace=wrap;html=1;shadow=0;fillColor=#FFFFFF;" vertex="1" parent="YWwmz5HcYFX-tSxnKrV8-158">
          <mxGeometry width="170" height="100" as="geometry" />
        </mxCell>
        <mxCell id="YWwmz5HcYFX-tSxnKrV8-99" value="login" style="text;html=1;strokeColor=none;fillColor=none;align=left;verticalAlign=middle;whiteSpace=wrap;rounded=0;" vertex="1" parent="YWwmz5HcYFX-tSxnKrV8-158">
          <mxGeometry y="40" width="140" height="20" as="geometry" />
        </mxCell>
        <mxCell id="YWwmz5HcYFX-tSxnKrV8-100" value="password" style="text;html=1;strokeColor=none;fillColor=none;align=left;verticalAlign=middle;whiteSpace=wrap;rounded=0;" vertex="1" parent="YWwmz5HcYFX-tSxnKrV8-158">
          <mxGeometry y="60" width="140" height="20" as="geometry" />
        </mxCell>
        <mxCell id="YWwmz5HcYFX-tSxnKrV8-102" value="&lt;b&gt;authorization&lt;/b&gt;" style="text;html=1;strokeColor=none;fillColor=#66FF66;align=center;verticalAlign=middle;whiteSpace=wrap;rounded=0;" vertex="1" parent="YWwmz5HcYFX-tSxnKrV8-158">
          <mxGeometry width="170" height="20" as="geometry" />
        </mxCell>
        <mxCell id="YWwmz5HcYFX-tSxnKrV8-107" value="&lt;i&gt;ObjectId&lt;/i&gt;" style="rounded=0;whiteSpace=wrap;html=1;shadow=0;fillColor=#FFFFFF;" vertex="1" parent="YWwmz5HcYFX-tSxnKrV8-158">
          <mxGeometry x="120" y="20" width="50" height="20" as="geometry" />
        </mxCell>
        <mxCell id="YWwmz5HcYFX-tSxnKrV8-109" value="clientId" style="text;html=1;strokeColor=none;fillColor=none;align=left;verticalAlign=middle;whiteSpace=wrap;rounded=0;" vertex="1" parent="YWwmz5HcYFX-tSxnKrV8-158">
          <mxGeometry y="20" width="140" height="20" as="geometry" />
        </mxCell>
        <mxCell id="YWwmz5HcYFX-tSxnKrV8-103" value="&lt;b&gt;modelStructureAuthorization&lt;/b&gt;" style="text;html=1;strokeColor=none;fillColor=#B3B3B3;align=center;verticalAlign=middle;whiteSpace=wrap;rounded=0;" vertex="1" parent="YWwmz5HcYFX-tSxnKrV8-158">
          <mxGeometry y="80" width="170" height="20" as="geometry" />
        </mxCell>
        <mxCell id="YWwmz5HcYFX-tSxnKrV8-161" value="" style="edgeStyle=orthogonalEdgeStyle;rounded=0;orthogonalLoop=1;jettySize=auto;html=1;fillColor=#CCE5FF;" edge="1" parent="WIyWlLk6GJQsqaUBKTNV-1" source="YWwmz5HcYFX-tSxnKrV8-160" target="YWwmz5HcYFX-tSxnKrV8-162">
          <mxGeometry relative="1" as="geometry">
            <mxPoint x="510" y="380" as="targetPoint" />
          </mxGeometry>
        </mxCell>
        <mxCell id="YWwmz5HcYFX-tSxnKrV8-160" value="&lt;b&gt;&lt;font style=&quot;font-size: 18px&quot;&gt;models&lt;/font&gt;&lt;/b&gt;" style="rounded=0;whiteSpace=wrap;html=1;shadow=0;fillColor=#FFFFFF;" vertex="1" parent="WIyWlLk6GJQsqaUBKTNV-1">
          <mxGeometry x="330" y="327.5" width="120" height="70" as="geometry" />
        </mxCell>
      </root>
    </mxGraphModel>
  </diagram>
</mxfile>
